<svg viewBox="0 0 32 32" xmlns="http://www.w3.org/2000/svg" class='icon'>
<g transform="translate(0 -1)">
<path d="M29 11H27V3C27 2.73478 26.8946 2.48043 26.7071 2.29289C26.5196 2.10536 26.2652 2 26 2H6C5.73478 2 5.48043 2.10536 5.29289 2.29289C5.10536 2.48043 5 2.73478 5 3V15H3C2.73478 15 2.48043 15.1054 2.29289 15.2929C2.10536 15.4804 2 15.7348 2 16V29C2 29.2652 2.10536 29.5196 2.29289 29.7071C2.48043 29.8946 2.73478 30 3 30H29C29.2652 30 29.5196 29.8946 29.7071 29.7071C29.8946 29.5196 30 29.2652 30 29V12C30 11.7348 29.8946 11.4804 29.7071 11.2929C29.5196 11.1054 29.2652 11 29 11ZM7 4H25V11H16C15.8153 11.0006 15.6344 11.0522 15.4773 11.1493C15.3202 11.2464 15.1931 11.3851 15.11 11.55L13.38 15H7V4ZM28 28H4V17H14C14.1847 16.9994 14.3656 16.9478 14.5227 16.8507C14.6798 16.7536 14.8069 16.6149 14.89 16.45L16.62 13H28V28Z"/>
<path d="m15.6 18.2c-0.1486-0.1114-0.3252-0.1793-0.5102-0.196-0.185-0.0166-0.3709 0.0185-0.537 0.1016-0.1661 0.083-0.3058 0.2107-0.4035 0.3687-0.0976 0.1579-0.1493 0.34-0.1493 0.5257v6c6e-4 0.1847 0.0522 0.3656 0.1493 0.5227s0.2358 0.2842 0.4007 0.3673c0.1598 0.0745 0.3365 0.1054 0.5121 0.0896s0.344-0.0778 0.4879-0.1796l4-3c0.1242-0.0931 0.225-0.2139 0.2944-0.3528 0.0695-0.1388 0.1056-0.292 0.1056-0.4472s-0.0361-0.3084-0.1056-0.4472c-0.0694-0.1389-0.1702-0.2597-0.2944-0.3528l-3.95-3zm0.4 4.8v-2l1.33 1-1.33 1z"/>
</svg>

