<svg enable-background="new 0 0 122.88 108.5" version="1.1" viewBox="0 0 122.88 108.5" xml:space="preserve" xmlns="http://www.w3.org/2000/svg" class='icon'>
<g transform="translate(0 -1)">
<style type="text/css">.st0{fill-rule:evenodd;clip-rule:evenodd;}</style><path class="st0" d="m41.96 0h38.96c2.97 0 5.65 1.21 7.61 3.16 1.95 1.95 3.16 4.64 3.16 7.61v86.97c0 2.97-1.21 5.65-3.16 7.61-1.95 1.95-4.64 3.16-7.61 3.16h-38.96c-2.97 0-5.65-1.21-7.61-3.16-1.95-1.95-3.16-4.64-3.16-7.61v-86.97c0-2.97 1.21-5.65 3.16-7.61 1.95-1.95 4.65-3.16 7.61-3.16zm-30.97 39.18c1.8-2-1.19-4.76-3.04-2.79l-0.03 0.03c-10.5 11.37-10.55 24.16-0.2 35.66l0.04 0.04c1.91 1.97 4.82-0.86 3.03-2.8-9.03-10.07-8.8-20.32 0.03-29.99 0.07-0.05 0.12-0.09 0.17-0.15zm100.9 0c-1.8-2 1.19-4.76 3.04-2.79l0.03 0.03c10.51 11.37 10.56 24.16 0.21 35.65l-0.04 0.04c-1.91 1.97-4.82-0.86-3.03-2.8 9.03-10.07 8.8-20.32-0.04-29.99-0.07-0.04-0.12-0.08-0.17-0.14zm-8.83 7.04c-1.66-2.12 1.49-4.62 3.17-2.61l0.03 0.04c5.7 6.69 5.95 14.63 0.54 21.58-1.65 2.16-4.91-0.36-3.26-2.51l0.01-0.02c3.34-4.3 4.35-9.29 1.05-14.04-0.48-0.67-1.01-1.44-1.54-2.44zm-83.24 0c1.66-2.12-1.49-4.62-3.17-2.61l-0.03 0.04c-5.7 6.69-5.95 14.63-0.54 21.58 1.65 2.16 4.91-0.36 3.26-2.51l-0.01-0.02c-3.34-4.3-4.35-9.29-1.05-14.04 0.48-0.67 1.01-1.44 1.54-2.44zm41.62 50.57c2.43 0 4.41 1.98 4.41 4.41s-1.98 4.41-4.41 4.41-4.41-1.98-4.41-4.41 1.97-4.41 4.41-4.41zm-27.15-3.38h54.31v-79.87h-54.31v79.87z"/>
</svg>
