<svg width="32" height="32" version="1.1" viewBox="0 0 8.4667 8.4667" xmlns="http://www.w3.org/2000/svg" xmlns:cc="http://creativecommons.org/ns#" xmlns:dc="http://purl.org/dc/elements/1.1/" xmlns:rdf="http://www.w3.org/1999/02/22-rdf-syntax-ns#" class='icon'>
<g transform="translate(0 -1)">
<metadata>
<rdf:RDF>
<cc:Work rdf:about="">
<dc:format>image/svg+xml</dc:format>
<dc:type rdf:resource="http://purl.org/dc/dcmitype/StillImage"/>
<dc:title/>
</cc:Work>
</rdf:RDF>
</metadata>
<g transform="translate(0 -288.53)">
<path d="m4.229 289.06c-0.41208 0-0.82426 0.10841-1.1933 0.32519-0.52928 0.31093-0.90738 0.81309-1.0817 1.3901h-0.023755c-0.3334 0-0.60734 0.27928-0.60734 0.6182v0.38878c0 0.33891 0.27395 0.6182 0.60734 0.6182h0.32624c0.16012 0 0.30681-0.0654 0.41651-0.16985 0.16128 0.31208 0.40695 0.56772 0.70949 0.73894-0.037524 0.0164-0.073309 0.0372-0.11007 0.0556-0.018691 9e-3 -0.036952 0.0192-0.05543 0.029-0.087904 0.0467-0.17358 0.0981-0.25656 0.1553-0.00483 3e-3 -0.010236 6e-3 -0.015047 9e-3 -6.405e-4 4.5e-4 -9.486e-4 1e-3 -0.00157 2e-3 -0.26233 0.18367-0.50012 0.4146-0.70236 0.68019-0.49815 0.65417-0.80203 1.509-0.80213 2.3609v0.20687h5.5967v-0.20687c-1.03e-4 -0.85191-0.30398-1.7067-0.80213-2.3609-0.20225-0.26559-0.43924-0.49652-0.70157-0.68019-6.486e-4 -4.5e-4 -9.324e-4 -1e-3 -0.00157-2e-3 -0.00461-3e-3 -0.00962-6e-3 -0.01425-9e-3 -0.084634-0.0584-0.17234-0.11028-0.2621-0.15778-0.015544-8e-3 -0.031023-0.0162-0.046718-0.0241-0.038101-0.0192-0.075095-0.041-0.11402-0.0579 0.30035-0.17005 0.54501-0.42338 0.70632-0.73249 0.10819 0.10031 0.25036 0.16339 0.40701 0.16339h0.32623c0.3334 0 0.61051-0.27928 0.61051-0.6182v-0.38877c0-0.33892-0.27711-0.61821-0.61051-0.61821h-0.029299c-0.17438-0.57691-0.5525-1.0793-1.0817-1.3901-0.36905-0.2168-0.78122-0.32519-1.1933-0.32519zm0 0.41213c0.34202 0 0.68393 0.0903 0.99059 0.27045 0.40466 0.23772 0.67574 0.62258 0.83222 1.0561-0.04615 0.0125-0.089427 0.0311-0.13065 0.0539-0.14264-0.45227-0.45342-0.82436-0.85994-1.044-7.298e-4 -4.1e-4 -0.00165-4.1e-4 -0.00239-8.1e-4 -0.071934-0.0388-0.1452-0.0737-0.22251-0.10219-0.036822-0.014-0.075227-0.0238-0.11323-0.0354-0.055934-0.0163-0.11064-0.0343-0.16866-0.045-0.086237-0.0165-0.17538-0.0246-0.26606-0.0274-0.017239-5.1e-4 -0.033322-6e-3 -0.050677-6e-3 -0.01683 0-0.032377 5e-3 -0.049095 5e-3 -0.092127 3e-3 -0.18249 0.0109-0.27002 0.0282-0.054901 0.0109-0.10692 0.0273-0.15995 0.0427-0.041848 0.0125-0.083911 0.0238-0.12432 0.0394-0.074211 0.0276-0.14455 0.0611-0.2138 0.0981-0.00634 3e-3 -0.012719 6e-3 -0.019003 0.0109-0.40173 0.22149-0.70692 0.59261-0.84725 1.0424-0.046012-0.0265-0.095091-0.0473-0.14728-0.0612 0.15652-0.43281 0.42707-0.81692 0.83143-1.0545 0.30666-0.18015 0.64857-0.27046 0.99059-0.27046zm0.00871 0.53368c0.09454 0 0.18805 9e-3 0.27714 0.0282 0.0044 9.1e-4 0.00829 3e-3 0.012672 5e-3 0.084626 0.0184 0.16669 0.0438 0.24468 0.0773 0.00832 3e-3 0.015524 9e-3 0.023754 0.0125 0.071839 0.0326 0.14124 0.0695 0.20588 0.11355 0.019383 0.014 0.035977 0.0301 0.054637 0.0442 0.050122 0.0382 0.099653 0.077 0.14411 0.1215 0.029277 0.0294 0.053407 0.0637 0.079976 0.0958 0.028975 0.0349 0.059979 0.0678 0.085518 0.10546 0.038227 0.0565 0.069979 0.11791 0.099771 0.18031 0.00739 0.0156 0.016914 0.0294 0.023754 0.045 0.029093 0.0671 0.050361 0.13769 0.068889 0.21008 0.00417 0.016 0.01065 0.0311 0.01425 0.0475 0.015431 0.0706 0.022363 0.14455 0.026925 0.21894 8.919e-4 0.014 0.00349 0.0276 0.00396 0.0419-9.325e-4 0.014-0.00396 0.0271-0.00396 0.0411v0.0933c-0.00247 0.0402-0.00615 0.0801-0.011876 0.11916-0.00627 0.0416-0.012289 0.0832-0.022172 0.12399-0.00745 0.031-0.017478 0.0607-0.026924 0.091-0.00256 8e-3 -0.00599 0.016-0.00871 0.0241-0.56471 0.29047-0.71662 0.36054-1.2991 0.39423-0.29053-6e-3 -0.26693 0.44739 0.021379 0.41052 0.41991-0.0243 0.43639-0.0548 0.86752-0.19299-0.23416 0.20081-0.53249 0.32703-0.86311 0.33164-0.00643-7e-5 -0.012565-2e-3 -0.019003-2e-3 -0.00619 0-0.012029 2e-3 -0.018212 2e-3 -0.55911-8e-3 -1.0344-0.35021-1.24-0.84196-0.00201-8e-3 -0.00439-0.014-0.00712-0.0209-0.032851-0.081-0.057865-0.16508-0.075222-0.25034-0.017437-0.0891-0.026923-0.18155-0.026923-0.2761 4.5e-6 -0.77179 0.60905-1.3933 1.3675-1.3933zm-2.3074 1.1833h0.32624c0.11581 0 0.2035 0.0868 0.2035 0.20446v0.38878c0 2e-3 -7.419e-4 3e-3 -7.906e-4 6e-3 -9.324e-4 0.0279-0.00858 0.0561-0.031674 0.0958-0.00487 9e-3 -0.00912 0.0179-0.012672 0.0274-0.036687 0.0472-0.091956 0.078-0.15837 0.078h-0.32624c-0.11581 0-0.2035-0.0891-0.2035-0.20688v-0.38877c0-0.11776 0.087691-0.20446 0.2035-0.20446zm4.2767 0h0.32624c0.11581 0 0.2035 0.0868 0.2035 0.20446v0.38878c0 0.11775-0.087691 0.20688-0.2035 0.20687h-0.32624c-0.056009 0-0.10483-0.0207-0.14095-0.0555-0.00528-0.014-0.011922-0.026-0.019797-0.0379-0.03005-0.0439-0.041967-0.0779-0.041967-0.11355v-0.21974c8.52e-5 -6e-3 -1.791e-4 -0.014-8.108e-4 -0.0209v-0.0508c0.00157-0.031 0.0095-0.0603 0.0095-0.0917 0-8e-3 -0.00227-0.0156-0.00239-0.0226 0.00745-0.0813 0.053016-0.14518 0.11957-0.17307 0.023587-9e-3 0.049313-0.014 0.076844-0.014zm-2.0057 2.0108c0.012442 2.7e-4 0.023924 5e-3 0.036423 5e-3 0.012213 0 0.023485-3e-3 0.035632-5e-3 0.052944 1e-3 0.1228 6e-3 0.20429 0.0156 0.19356 0.0285 0.38065 0.0942 0.55983 0.18513-0.00585 0.0255-0.035215 0.0531-0.10215 0.0829-0.22541 0.13163-0.44404 0.24351-0.69761 0.2439-0.25357-3.9e-4 -0.45793-0.13489-0.6699-0.26644-0.051221-0.028-0.08196-0.0533-0.098979-0.0757 0.23247-0.11308 0.47818-0.17944 0.73245-0.18513zm-1.1624 0.46122c0.32524 0.30381 0.75303 0.47587 1.1988 0.47654 0.44582-6.7e-4 0.87361-0.17273 1.1988-0.47654 0.17223 0.13941 0.3339 0.30328 0.47748 0.49184 0.39819 0.52289 0.59801 1.2214 0.64614 1.9013h-4.6449c0.048132-0.67989 0.24874-1.3784 0.64693-1.9013 0.1435-0.18845 0.30457-0.35244 0.47669-0.49184z" color="#000000" color-rendering="auto" dominant-baseline="auto" image-rendering="auto" shape-rendering="auto" solid-color="#000000" style="font-feature-settings:normal;font-variant-alternates:normal;font-variant-caps:normal;font-variant-ligatures:normal;font-variant-numeric:normal;font-variant-position:normal;isolation:auto;mix-blend-mode:normal;paint-order:normal;shape-padding:0;text-decoration-color:#000000;text-decoration-line:none;text-decoration-style:solid;text-indent:0;text-orientation:mixed;text-transform:none;white-space:normal"/>
</g>
</svg>
